<svg width="32" height="32" viewBox="0 0 32 32" fill="none" xmlns="http://www.w3.org/2000/svg">
<g clip-path="url(#clip0_358_381)">
<path d="M20 27C18.9913 28.2213 17.7075 29 16 29C14.5413 29 13.1424 28.4205 12.1109 27.3891C11.0795 26.3576 10.5 24.9587 10.5 23.5C10.5 18.3137 6 20 6 13C6 10.3478 7.05357 7.8043 8.92893 5.92893C10.8043 4.05357 13.3478 3 16 3C18.6522 3 21.1957 4.05357 23.0711 5.92893C24.9464 7.8043 26 10.3478 26 13" stroke="#D2CDC6" stroke-width="2" stroke-linecap="round" stroke-linejoin="round"/>
<path d="M21.7325 21C21.5125 21.3815 21.1727 21.6797 20.7658 21.8484C20.359 22.017 19.9078 22.0466 19.4824 21.9326C19.057 21.8187 18.6811 21.5675 18.4131 21.218C18.145 20.8686 17.9998 20.4404 18 20C18 17 21 16 21 13C21 11.6739 20.4732 10.4021 19.5355 9.46447C18.5979 8.52678 17.3261 8 16 8C14.6739 8 13.4021 8.52678 12.4645 9.46447C11.5268 10.4021 11 11.6739 11 13" stroke="#D2CDC6" stroke-width="2" stroke-linecap="round" stroke-linejoin="round"/>
</g>
<defs>
<clipPath id="clip0_358_381">
<rect width="32" height="32" fill="white"/>
</clipPath>
</defs>
</svg>
