<svg width="32" height="32" viewBox="0 0 32 32" fill="none" xmlns="http://www.w3.org/2000/svg">
<g clip-path="url(#clip0_358_387)">
<path d="M8 9.5C8 7.77609 8.68482 6.12279 9.90381 4.90381C11.1228 3.68482 12.7761 3 14.5 3C16.2239 3 17.8772 3.68482 19.0962 4.90381C20.3152 6.12279 21 7.77609 21 9.5" stroke="#D2CDC6" stroke-width="2" stroke-linecap="round" stroke-linejoin="round"/>
<path d="M9.00001 28L5.33501 21.75C5.00872 21.1761 4.92267 20.4964 5.09564 19.8593C5.26861 19.2222 5.68656 18.6794 6.25828 18.3493C6.83 18.0192 7.50907 17.9287 8.14731 18.0974C8.78555 18.2661 9.33114 18.6805 9.66501 19.25L12 23V9.5C12 8.83696 12.2634 8.20107 12.7322 7.73223C13.2011 7.26339 13.837 7 14.5 7C15.1631 7 15.7989 7.26339 16.2678 7.73223C16.7366 8.20107 17 8.83696 17 9.5V16.5C17 15.837 17.2634 15.2011 17.7322 14.7322C18.2011 14.2634 18.837 14 19.5 14C20.1631 14 20.7989 14.2634 21.2678 14.7322C21.7366 15.2011 22 15.837 22 16.5V18.5C22 17.837 22.2634 17.2011 22.7322 16.7322C23.2011 16.2634 23.837 16 24.5 16C25.1631 16 25.7989 16.2634 26.2678 16.7322C26.7366 17.2011 27 17.837 27 18.5V23C27 26 26 28 26 28" stroke="#D2CDC6" stroke-width="2" stroke-linecap="round" stroke-linejoin="round"/>
</g>
<defs>
<clipPath id="clip0_358_387">
<rect width="32" height="32" fill="white"/>
</clipPath>
</defs>
</svg>
